# xmcd
#
# Track frame offsets:
#	150
#	17862
#	30138
#	38156
#	41747
#	49027
#	59362
#	68816
#	77840
#	87217
#	97404
#	108820
#	117109
#	128829
#	137228
#	147960
#	160705
#	170993
#	175979
#	182753
#
# Disc length: 2584 seconds
# Revision: 0
# Processed by: cddbd v1.5.2PL0 Copyright (c) Steve Scherf et al.
# Submitted via: dBpowerAMP V12.0
#
DISCID=140a1614
DTITLE=Hylo Brown and The Timberliners - Hylo Brown and the Timberliners
DYEAR=2013
DGENRE=Country
TTITLE0=Picture from Life's Other Side
TTITLE1=Little Bunch of Roses
TTITLE2=Great Historical Bum
TTITLE3=Banjo Signal
TTITLE4=Bring a Little Water Sylvie
TTITLE5=Blue Tail Fly
TTITLE6=Weeping Willow
TTITLE7=Wednesday Night Waltz
TTITLE8=Ground Hog
TTITLE9=Lonesome Road Blues
TTITLE10=The Picture on the Wall
TTITLE11=Left My Gal in the Mountains
TTITLE12=Sweet Fern
TTITLE13=Banjo on the Mountain
TTITLE14=Same Old Tale
TTITLE15=Brown Eyes
TTITLE16=Walking Cane
TTITLE17=Five String Rock
TTITLE18=Handsome Molly
TTITLE19=The Hobo Sweetheart
EXTD=
EXTT0=
EXTT1=
EXTT2=
EXTT3=
EXTT4=
EXTT5=
EXTT6=
EXTT7=
EXTT8=
EXTT9=
EXTT10=
EXTT11=
EXTT12=
EXTT13=
EXTT14=
EXTT15=
EXTT16=
EXTT17=
EXTT18=
EXTT19=
PLAYORDER=
